<svg xmlns="http://www.w3.org/2000/svg" xmlns:xlink="http://www.w3.org/1999/xlink" viewBox="0 0 224 160">
  <style>
    @keyframes slide-down {
      0% {
        transform: translate3d(0, 0, 0);
      }

      25%,
      40% {
        transform: translate3d(0, 112px, 0);
      }

      65%,
      100% {
        transform: translate3d(0, 0, 0);
      }
    }

    .browser__scrollthumb {
      animation: slide-down 10s cubic-bezier(0.37, 0, 0.63, 1) infinite both paused;
    }

    @keyframes scroll {
      0% {
        transform: translate3d(0, 0, 0);
      }

      25%,
      40% {
        transform: translate3d(0, -365px, 0);
      }

      65%,
      100% {
        transform: translate3d(0, 0, 0);
      }
    }

    .page {
      animation: scroll 10s cubic-bezier(0.37, 0, 0.63, 1) infinite both paused;
    }

    @keyframes scale-y {
      0% {
        transform: scaleY(0);
      }

      20%,
      40% {
        transform: scaleY(1);
      }

      65%,
      100% {
        transform: scaleY(0);
      }
    }

    .flower__stem {
      animation: scale-y 10s cubic-bezier(0.65, 0, 0.35, 1) infinite both paused;
      transform-origin: 50% 1362px;
    }

    @keyframes scale-1 {
      0% {
        opacity: 0;
        transform: scale(0);
      }

      10% {
        opacity: 1;
      }

      15%,
      30% {
        opacity: 1;
        transform: scale(1);
      }

      35% {
        opacity: 1;
      }

      40%,
      100% {
        opacity: 0;
        transform: scale(0);
      }
    }

    .flower__base {
      animation: scale-1 10s cubic-bezier(0.65, 0, 0.35, 1) 0.8s infinite both paused;
      transform-origin: 1090px 1314px;
    }

    @keyframes scale-2 {
      0% {
        transform: scale(0);
      }

      20%,
      45% {
        transform: scale(1);
      }

      55%,
      100% {
        transform: scale(0);
      }
    }

    @keyframes scale-3 {
      0% {
        transform: scale(0);
      }

      20%,
      35% {
        transform: scale(1);
      }

      45%,
      100% {
        transform: scale(0);
      }
    }

    .flower__petal {
      animation: scale-2 10s cubic-bezier(0.65, 0, 0.35, 1) infinite both paused;
    }

    .flower__petal:nth-child(1) {
      animation-delay: 0;
      transform-origin: 1090px 1360px;
    }

    .flower__petal:nth-child(2) {
      animation-delay: 0.3s;
      transform-origin: 1090px 1355px;
    }

    .flower__petal:nth-child(3) {
      animation-name: scale-3;
      animation-delay: 0.5s;
      transform-origin: 1090px 1343px;
    }

    .flower__petal:nth-child(4) {
      animation-name: scale-3;
      animation-delay: 0.8s;
      transform-origin: 1090px 1338px;
    }

    .is-animated .browser__scrollthumb,
    .is-animated .page,
    .is-animated .flower__base,
    .is-animated .flower__petal,
    .is-animated .flower__stem {
      animation-play-state: running;
    }
  </style>
  <rect fill="#000" x="0" y="0" width="100%" height="100%" />
  <g class="is-animated">
    <g>
      <defs>
        <path id="c" d="M0 19h224v141H0z" />
      </defs>
      <clipPath id="d">
        <use xlink:href="#c" overflow="visible" />
      </clipPath>
      <path fill="none" stroke="#FFF" d="M198 41.5h7M198 44.5h7M198 47.5h7" />
      <g opacity=".3" clip-path="url(#d)">
        <g class="page">

          <path fill="none" stroke="#FFF" d="M14 529.2h190.5" />
          <g>
            <g fill="#FFF">
              <path d="M14.9 226.9l1.6-.3c.5 1.4 1.9 2.1 3.8 2.1s2.8-.7 2.8-1.8c0-1.2-1.2-1.5-3.1-1.8-2.1-.4-4.2-.8-4.2-3 0-1.8 1.6-3 4-3 1.9 0 3.3.5 4.3 1.7l-1.1.9c-.8-.9-1.9-1.3-3.4-1.3-1.4 0-2.3.6-2.3 1.6 0 1.1 1.1 1.4 3 1.7 1.9.4 4.3.8 4.3 3.1 0 1.8-1.3 3.2-4.4 3.2-3.2-.1-4.7-1.3-5.3-3.1z" />
              <path d="M30.4 229.6c-.5.1-.9.2-1.5.2-1.5 0-2.2-.7-2.2-2v-4.5h-1.5v-1h1.5v-2l1.4-.7v2.7h2.2v1h-2.2v4.3c0 .8.3 1.2 1.1 1.2.3 0 .7-.1 1.1-.2l.1 1z" />
              <path d="M39.5 226.4H33c.1 1.4 1.1 2.2 2.8 2.2 1.1 0 2-.2 2.8-.8l.6 1c-1.1.6-2.1.9-3.4.9-2.6 0-4.3-1.5-4.3-3.8s1.7-3.9 4.1-3.9c2.7 0 4 1.7 4 3.6-.1.3-.1.6-.1.8zm-1.5-1v-.2c0-.9-.8-1.9-2.5-1.9-1.4 0-2.5.8-2.6 2.1H38z" />
              <path d="M49.9 226c0 2.3-1.8 3.8-4.2 3.8-1.5 0-2.6-.6-3.2-1.6v4.5h-1.4v-10.5h1.4v1.4c.7-1 1.8-1.5 3.1-1.5 2.5.1 4.3 1.6 4.3 3.9zm-1.5 0c0-1.6-1.2-2.7-2.9-2.7s-2.9 1-2.9 2.7c0 1.6 1.2 2.7 2.9 2.7s2.9-1.1 2.9-2.7z" />
              <path d="M61.7 222.3h1.5v7.4h-1.5v-1.3c-.6 1-1.5 1.4-2.8 1.4-2 0-3.2-1-3.2-3v-4.5h1.4v4.2c0 1.5.8 2.1 2.1 2.1 1.7 0 2.4-1 2.4-2.7v-3.6z" />
              <path d="M73.8 226c0 2.3-1.8 3.8-4.2 3.8-1.5 0-2.6-.6-3.2-1.6v4.5H65v-10.5h1.4v1.4c.7-1 1.8-1.5 3.1-1.5 2.6.1 4.3 1.6 4.3 3.9zm-1.4 0c0-1.6-1.2-2.7-2.9-2.7s-2.9 1-2.9 2.7c0 1.6 1.2 2.7 2.9 2.7 1.6 0 2.9-1.1 2.9-2.7z" />
            </g>
            <path fill="none" stroke="#FFF" d="M14 237.2h114.5" />
            <path fill="none" stroke="#FFF" d="M14 243.2h114.5" />
            <path fill="none" stroke="#FFF" d="M14 249.2h114.5" />
            <path fill="none" stroke="#FFF" d="M14 255.2h45.8" />
            <path fill="none" stroke="#FFF" d="M15 287.7h33v10H15z" />
            <path fill="none" stroke="#FFF" d="M27 292.7h10" />
            <path fill="none" stroke="#FFF" d="M14 268.2h114.5" />
            <path fill="none" stroke="#FFF" d="M14 274.2h114.5" />
            <path fill="none" stroke="#FFF" d="M14 280.2h114.5" />
          </g>
          <g fill="none" stroke="#FFF">
            <path d="M14.5 141.5h38v18h-38z" />
            <path d="M90.5 141.5h38v18h-38z" />
            <path d="M14.5 180.5h38v18h-38z" />
            <path d="M90.5 180.5h38v18h-38z" />
          </g>
          <g>
            <g>
              <path fill="none" stroke="#FFF" d="M.5.5h116v65H.5z" transform="translate(14 64)" />
            </g>
            <g fill="#FFF">
              <path d="M17.5 49V33.7h8.6c3 0 4.8 1.4 4.8 3.8 0 1.5-.7 2.7-1.9 3.3 1.8.5 2.7 1.8 2.7 3.9 0 2.8-1.8 4.3-5 4.3h-9.2zm2.3-8.8h6.3c1.5 0 2.4-.9 2.4-2.4s-1-2.4-2.7-2.4h-6v4.8zm0 7.1h6.4c2 0 3.1-.9 3.1-2.7 0-1.7-.9-2.6-2.7-2.6h-6.8v5.3z" />
              <path d="M33.5 43.6c0-3.4 2.6-5.6 6.4-5.6 3.8 0 6.4 2.2 6.4 5.6 0 3.4-2.7 5.6-6.4 5.6s-6.4-2.2-6.4-5.6zm10.7 0c0-2.4-1.8-3.8-4.3-3.8s-4.3 1.5-4.3 3.8 1.8 3.9 4.3 3.9c2.5-.1 4.3-1.6 4.3-3.9z" />
              <path d="M59.5 42.1V49h-2.1v-6.1c0-2.2-1.1-3.3-3-3.3-2.2 0-3.6 1.3-3.6 4V49h-2.1V38.2h2.1v2c.7-1.4 2.2-2.2 4.1-2.2 2.8 0 4.6 1.4 4.6 4.1z" />
              <path d="M60.2 53.4v-1.7c.4.1.8.2 1.1.2.7 0 1.1-.4 1.1-1.4V38.2h2.1V51c0 1.7-.8 2.6-2.4 2.6-.7.1-1.3 0-1.9-.2zM62 36.2v-2.6h2.7v2.6H62z" />
              <path d="M66.7 43.6c0-3.4 2.6-5.6 6.4-5.6 3.8 0 6.4 2.2 6.4 5.6 0 3.4-2.7 5.6-6.4 5.6s-6.4-2.2-6.4-5.6zm10.8 0c0-2.4-1.8-3.8-4.3-3.8s-4.3 1.5-4.3 3.8 1.8 3.9 4.3 3.9c2.5-.1 4.3-1.6 4.3-3.9z" />
              <path d="M90.4 38.2h2.1V49h-2.1v-1.8c-.8 1.4-2.3 2-4 2-2.9 0-4.7-1.5-4.7-4.4v-6.6h2.1v6.2c0 2.1 1.1 3.1 3.1 3.1 2.5 0 3.5-1.5 3.5-4v-5.3z" />
              <path d="M103.6 38.5l-1 1.7c-.4-.2-1.1-.3-1.6-.3-1.8 0-3.5 1-3.5 3.4V49h-2.1V38.2h2.2V40c.8-1.3 2.4-2 3.9-2 .7 0 1.4.1 2.1.5z" />
            </g>
          </g>
          <g>
            <path fill="none" stroke="#FFF" d="M.5 253.7h116v65H.5z" transform="translate(14 64)" />
          </g>
          <path fill="none" stroke="#FFF" d="M14 402.7h114.5" />
          <path fill="none" stroke="#FFF" d="M14 408.7h114.5" />
          <path fill="none" stroke="#FFF" d="M14 414.7h114.5" />
          <path fill="none" stroke="#FFF" d="M14 420.7h45.8" />
          <path fill="none" stroke="#FFF" d="M14.5 440.7h38v18h-38z" />
          <path fill="none" stroke="#FFF" d="M90.5 440.7h38v18h-38z" />
          <path fill="none" stroke="#FFF" d="M15 498.2h33v10H15z" />
          <path fill="none" stroke="#FFF" d="M27 503.2h10" />
          <path fill="none" stroke="#FFF" d="M14 478.7h114.5" />
          <path fill="none" stroke="#FFF" d="M14 484.7h114.5" />
          <path fill="none" stroke="#FFF" d="M14 490.7h114.5" />
        </g>
      </g>
    </g>
    <g class="flower" transform="translate(-915.464 -1234.9)" fill="none" stroke-width="1.2" stroke-linecap="round" stroke-miterlimit="10">
      <g class="flower__pot">
        <path stroke="#F56E59" stroke-linejoin="round" d="M1073.1 1366.9h33.1v7.9c0 9.1-7.4 16.6-16.6 16.6 0 0 0 0 0 0h0c-9.1 0-16.6-7.4-16.6-16.6 0 0 0 0 0 0v-7.9h.1z" />
        <path stroke="#F56E59" stroke-linejoin="round" d="M1071.7 1362.2h35.9v4.8h-35.9z" />
      </g>

      <path class="flower__stem" stroke="#58F4FF" d="M1089.7 1362.2v-53.4" />

      <g>
        <g class="flower__petal">
          <path stroke="#F56E59" d="M1089.7 1355.7l-16.8-16.8" />
          <path stroke="#A041FF" stroke-linejoin="round" d="M1082.8 1348.7c-2.7 2.7-7.1 2.7-9.8 0-2.7-2.7-2.7-7.1 0-9.8l9.3 9.3.5.5z" />
          <path stroke="#F56E59" d="M1075.1 1345.8l7.7 2.9" />
        </g>

        <g class="flower__petal">
          <path stroke="#F56E59" d="M1089.7 1349.6l16.8-16.8" />
          <path stroke="#A041FF" stroke-linejoin="round" d="M1096.6 1342.7c2.7 2.7 7.1 2.7 9.8 0 2.7-2.7 2.7-7.1 0-9.8l-9.3 9.3-.5.5z" />
          <path stroke="#F56E59" d="M1104.3 1339.7l-7.7 3" />
        </g>

        <g class="flower__petal">
          <path stroke="#F56E59" d="M1089.7 1337.2l-16.8-16.8" />
          <path stroke="#A041FF" stroke-linejoin="round" d="M1082.8 1330.2c-2.7 2.7-7.1 2.7-9.8 0-2.7-2.7-2.7-7.1 0-9.8l9.3 9.3.5.5z" />
          <path stroke="#F56E59" d="M1075.1 1327.3l7.7 2.9" />
        </g>

        <g class="flower__petal">
          <path stroke="#F56E59" d="M1089.7 1331.1l16.8-16.7" />
          <path stroke="#A041FF" stroke-linejoin="round" d="M1096.6 1324.2c2.7 2.7 7.1 2.7 9.8 0 2.7-2.7 2.7-7.1 0-9.8l-9.3 9.3-.5.5z" />
          <path stroke="#F56E59" d="M1104.3 1321.3l-7.7 2.9" />
        </g>
      </g>
      <circle class="flower__base" stroke="#58FF79" stroke-linejoin="round" cx="1089.7" cy="1308.8" r="11.4" />
    </g>
    <g>
      <path fill="none" stroke="#FFF" stroke-width="2" d="M1 1h222v19H1z" />
      <path fill="none" stroke="#FFF" stroke-width="2" d="M1 20h222v139H1z" />
      <path fill="none" stroke="#FFF" stroke-width="2" d="M214 20h9v139h-9z" />
      <path class="browser__scrollthumb" fill="#58F4FF" d="M217 23h3v21h-3z" />
    </g>
  </g>
</svg>