<svg xmlns="http://www.w3.org/2000/svg" xmlns:xlink="http://www.w3.org/1999/xlink" viewBox="0 0 224 160">
  <style>
    @keyframes fade-in {
      0% {
        opacity: 0;
        transform: translate3d(0, 5px, 0);
      }

      3.75%,
      75% {
        opacity: 1;
        transform: translate3d(0, 0, 0);
      }

      100% {
        opacity: 0;
        transform: translate3d(0, 5px, 0);
      }
    }

    .page__title,
    .page__menu,
    .page__visual,
    .page__text,
    .page__cell {
      animation: fade-in 8s cubic-bezier(0.33, 1, 0.68, 1) 1.4s infinite both paused;
    }

    .page__visual {
      animation-delay: 1.5s;
    }

    .page__text {
      animation-delay: 1.6s;
    }

    .page__cell:nth-child(1) {
      animation-delay: 1.6s;
    }

    .page__cell:nth-child(2) {
      animation-delay: 1.65s;
    }

    .page__cell:nth-child(3) {
      animation-delay: 1.7s;
    }

    @keyframes loader-scale {
      0%,
      12.5% {
        transform: scaleX(1);
        transform-origin: 99% 50%;
      }

      22.5% {
        transform: scaleX(0);
        transform-origin: 99% 50%;
      }

      65% {
        transform: scaleX(0);
        transform-origin: 2% 50%;
      }

      75%,
      100% {
        transform: scaleX(1);
        transform-origin: 2% 50%;
      }
    }

    .loader path {
      animation: loader-scale 8s cubic-bezier(0.87, 0, 0.13, 1) infinite both paused;
      transform-origin: 100% 50%;
    }

    .loader path:nth-child(1) {
      animation-delay: 0.1s;
    }

    @keyframes loader-fade {

      0%,
      12.5% {
        opacity: 1;
      }

      17.5%,
      72.5% {
        opacity: 0;
      }

      75%,
      100% {
        opacity: 1;
      }
    }

    .loader g {
      animation: loader-fade 8s linear infinite both paused;
    }

    .is-animated .loader g,
    .is-animated .loader path,
    .is-animated .page__title,
    .is-animated .page__menu,
    .is-animated .page__visual,
    .is-animated .page__text,
    .is-animated .page__grid path {
      animation-play-state: running;
    }

    @keyframes wave {
      0% {
        transform: translate3d(0, 0, 0);
      }

      50% {
        transform: translate3d(0, -5px, 0);
      }

      100% {
        transform: translate3d(0, 0, 0);
      }
    }

    .loader circle {
      animation: wave 1s ease-in-out infinite;
    }

    .loader circle:nth-child(2) {
      animation-delay: 0.2s;
    }

    .loader circle:nth-child(3) {
      animation-delay: 0.4s;
    }
  </style>
  <rect fill="#000" x="0" y="0" width="100%" height="100%" />
  <g class="is-animated">
    <g>
      <defs>
        <path id="a" d="M0 19h224v141H0z" />
      </defs>
      <clipPath id="b">
        <use xlink:href="#a" overflow="visible" />
      </clipPath>
      <g class="page" clip-path="url(#b)">
        <g class="page__title" fill="#FFF">
          <path d="M17.5 49V33.7h8.6c3 0 4.8 1.4 4.8 3.8 0 1.5-.7 2.7-1.9 3.3 1.8.5 2.7 1.8 2.7 3.9 0 2.8-1.8 4.3-5 4.3h-9.2zm2.3-8.8h6.3c1.5 0 2.4-.9 2.4-2.4s-1-2.4-2.7-2.4h-6v4.8zm0 7.1h6.4c2 0 3.1-.9 3.1-2.7 0-1.7-.9-2.6-2.7-2.6h-6.8v5.3zM33.5 43.6c0-3.4 2.6-5.6 6.4-5.6 3.8 0 6.4 2.2 6.4 5.6 0 3.4-2.7 5.6-6.4 5.6s-6.4-2.2-6.4-5.6zm10.7 0c0-2.4-1.8-3.8-4.3-3.8s-4.3 1.5-4.3 3.8 1.8 3.9 4.3 3.9c2.5-.1 4.3-1.6 4.3-3.9zM59.5 42.1V49h-2.1v-6.1c0-2.2-1.1-3.3-3-3.3-2.2 0-3.6 1.3-3.6 4V49h-2.1V38.2h2.1v2c.7-1.4 2.2-2.2 4.1-2.2 2.8 0 4.6 1.4 4.6 4.1zM60.2 53.4v-1.7c.4.1.8.2 1.1.2.7 0 1.1-.4 1.1-1.4V38.2h2.1V51c0 1.7-.8 2.6-2.4 2.6-.7.1-1.3 0-1.9-.2zM62 36.2v-2.6h2.7v2.6H62zM66.7 43.6c0-3.4 2.6-5.6 6.4-5.6 3.8 0 6.4 2.2 6.4 5.6 0 3.4-2.7 5.6-6.4 5.6s-6.4-2.2-6.4-5.6zm10.8 0c0-2.4-1.8-3.8-4.3-3.8s-4.3 1.5-4.3 3.8 1.8 3.9 4.3 3.9c2.5-.1 4.3-1.6 4.3-3.9zM90.4 38.2h2.1V49h-2.1v-1.8c-.8 1.4-2.3 2-4 2-2.9 0-4.7-1.5-4.7-4.4v-6.6h2.1v6.2c0 2.1 1.1 3.1 3.1 3.1 2.5 0 3.5-1.5 3.5-4v-5.3zM103.6 38.5l-1 1.7c-.4-.2-1.1-.3-1.6-.3-1.8 0-3.5 1-3.5 3.4V49h-2.1V38.2h2.2V40c.8-1.3 2.4-2 3.9-2 .7 0 1.4.1 2.1.5z" />
        </g>

        <path class="page__menu" fill="none" stroke="#FFF" d="M198 41.5h7M198 44.5h7M198 47.5h7" />
        <path class="page__visual" stroke="#58F4FF" d="M14.5 64.5h116v65h-116z" />

        <g class="page__text">
          <g fill="#FFF">
            <path d="M144 82V71.5h1.6V76h6.2v-4.5h1.6V82h-1.6v-4.6h-6.2V82H144zM162.8 77.4V82h-1.2l-.2-1.4c-.6 1-1.8 1.5-3.1 1.5-2 0-3.2-.8-3.2-2.3 0-1.5 1.1-2.2 3-2.2h3.2v-.2c0-1.2-.5-1.9-2.2-1.9-1.1 0-2.1.3-3 1l-.5-1c1.1-.7 2.3-1.1 3.7-1.1 2.2.1 3.5 1.1 3.5 3zm-1.6 1.3l-2.8-.1c-1.1 0-1.8.3-1.8 1.2 0 .8.7 1.3 1.8 1.3 1.8 0 2.8-1 2.8-2.4zM172 77.3V82h-1.5v-4.1c0-1.5-.7-2.3-2.1-2.3-1.5 0-2.4.9-2.4 2.7V82h-1.5V71.5h1.5V76c.5-1 1.5-1.5 2.8-1.5 2 0 3.2.9 3.2 2.8zM181.2 77.4V82H180l-.2-1.4c-.6 1-1.8 1.5-3.1 1.5-2 0-3.2-.8-3.2-2.3 0-1.5 1.1-2.2 3-2.2h3.2v-.2c0-1.2-.5-1.9-2.2-1.9-1.1 0-2.1.3-3 1l-.5-1c1.1-.7 2.3-1.1 3.7-1.1 2.2.1 3.5 1.1 3.5 3zm-1.6 1.3l-2.8-.1c-1.1 0-1.8.3-1.8 1.2 0 .8.7 1.3 1.8 1.3 1.8 0 2.8-1 2.8-2.4z" />
          </g>
          <path fill="none" stroke="#FFF" d="M142.5 89.5H205M142.5 95.5H205M142.5 101.5H205M142.5 107.5h25" />

          <path stroke="#FD0" d="M143.5 114.5h33v10h-33z" />
          <path fill="none" stroke="#FD0" d="M155.5 119.5h10" />
        </g>

        <g class="page__grid">
          <path class="page__cell" stroke="#58F4FF" d="M14.5 141.5h38v18h-38z" />
          <path class="page__cell" stroke="#F56E59" d="M90.5 141.5h38v18h-38z" />
          <path class="page__cell" stroke="#58FF79" d="M166.5 141.5h38v18h-38z" />
        </g>
      </g>
    </g>
    <g class="browser">
      <path fill="none" stroke="#FFF" stroke-width="2" d="M1 1h222v19H1z" />
      <path fill="none" stroke="#FFF" stroke-width="2" d="M1 20h222v139H1z" />
      <path fill="none" stroke="#FFF" stroke-width="2" d="M214 20h9v139h-9z" />
      <path fill="#58F4FF" d="M217 23h3v21h-3z" />
    </g>
    <g class="loader">
      <path fill="#58F4FF" d="M2.047 21.011h219.7v136.9H2.047z" />
      <path d="M2.047 21.011h219.7v136.9H2.047z" />
      <g>
        <circle stroke="#58F4FF" cx="92" cy="89.5" r="5.5" />
        <circle stroke="#58F4FF" cx="112" cy="89.5" r="5.5" />
        <circle stroke="#58F4FF" cx="132" cy="89.5" r="5.5" />
      </g>
    </g>
  </g>
</svg>